<?xml version="1.0" encoding="UTF-8"?>
<!DOCTYPE svg PUBLIC "-//W3C//DTD SVG 1.1//EN" "http://www.w3.org/Graphics/SVG/1.1/DTD/svg11.dtd">
<!-- Creator: CorelDRAW -->
<svg xmlns="http://www.w3.org/2000/svg" xml:space="preserve" width="160mm" height="67mm" version="1.1" style="shape-rendering:geometricPrecision; text-rendering:geometricPrecision; image-rendering:optimizeQuality; fill-rule:evenodd; clip-rule:evenodd"
viewBox="0 0 16000 6700"
 xmlns:xlink="http://www.w3.org/1999/xlink"
 xmlns:xodm="http://www.corel.com/coreldraw/odm/2003">
 <defs>
  <style type="text/css">
   <![CDATA[
    .fil0 {fill:#005E72;fill-rule:nonzero}
   ]]>
  </style>
 </defs>
 <g id="Слой_x0020_1">
  <metadata id="CorelCorpID_0Corel-Layer"/>
  <g id="_1504466902176">
   <path class="fil0" d="M838.71 3442.49l-547.46 0 0 -338.69 547.46 0c84.6,0 153.47,-13.75 206.59,-41.26 53.13,-27.49 91.98,-65.85 116.58,-115.05 24.58,-49.22 36.89,-104.69 36.89,-166.46 0,-62.71 -12.31,-121.08 -36.89,-175.13 -24.6,-54.03 -63.45,-97.46 -116.58,-130.27 -53.12,-32.79 -121.99,-49.21 -206.59,-49.21l-393.99 0 0 1767.27 -442.7 0 0 -2107.41 836.69 0c168.23,0 312.58,29.67 433.1,89.01 120.5,59.35 212.73,141.13 276.69,245.34 63.93,104.21 95.91,223.4 95.91,357.51 0,136.05 -31.98,253.78 -95.91,353.16 -63.96,99.4 -156.19,176.11 -276.69,230.15 -120.52,54.04 -264.87,81.04 -433.1,81.04z"/>
   <path class="fil0" d="M1836.25 3426.57l0 -30.39c0,-114.83 16.72,-220.74 50.18,-317.72 33.43,-96.96 82.12,-181.14 146.08,-252.56 63.94,-71.39 142.63,-127.12 236.11,-167.17 93.45,-40.03 200.69,-60.07 321.69,-60.07 121,0 228.72,20.04 323.17,60.07 94.44,40.05 173.87,95.78 238.31,167.17 64.43,71.42 113.38,155.6 146.83,252.56 33.43,96.98 50.18,202.89 50.18,317.72l0 30.39c0,113.87 -16.75,219.28 -50.18,316.26 -33.45,96.98 -82.4,181.43 -146.83,253.3 -64.44,71.89 -143.39,127.61 -236.84,167.16 -93.48,39.57 -200.68,59.35 -321.69,59.35 -121,0 -228.49,-19.78 -322.43,-59.35 -93.95,-39.55 -173.16,-95.27 -237.58,-167.16 -64.45,-71.87 -113.39,-156.32 -146.82,-253.3 -33.46,-96.98 -50.18,-202.39 -50.18,-316.26zm424.99 -30.39l0 0 0 30.39c0,65.64 5.9,126.89 17.71,183.82 11.8,56.94 30.74,106.88 56.81,149.81 26.06,42.95 60.25,76.48 102.56,100.59 42.29,24.14 93.93,36.19 154.94,36.19 59.03,0 109.68,-12.05 151.99,-36.19 42.29,-24.11 76.22,-57.64 101.83,-100.59 25.56,-42.93 44.5,-92.87 56.81,-149.81 12.29,-56.93 18.45,-118.18 18.45,-183.82l0 -30.39c0,-63.68 -6.16,-123.76 -18.45,-180.2 -12.31,-56.46 -31.5,-106.61 -57.55,-150.54 -26.08,-43.89 -60.28,-78.37 -102.56,-103.48 -42.31,-25.08 -93.48,-37.63 -153.47,-37.63 -60.02,0 -110.93,12.55 -152.73,37.63 -41.82,25.11 -75.76,59.59 -101.82,103.48 -26.07,43.93 -45.01,94.08 -56.81,150.54 -11.81,56.44 -17.71,116.52 -17.71,180.2z"/>
   <path class="fil0" d="M3897.74 2627.61l237.58 1159.37 22.13 406.71 -265.62 0 -404.33 -1566.08 410.24 0zm168.22 1160.81l0 0 332.02 -1160.81 270.04 0 -87.05 455.92 -332.03 1110.16 -225.78 0 42.8 -405.27zm638.96 -1160.81l0 0 330.54 1152.13 45.75 413.95 -227.25 0 -332.02 -1108.7 -84.12 -457.38 267.1 0zm267.09 1140.55l0 0 231.67 -1140.55 411.71 0 -404.33 1566.08 -264.14 0 25.09 -425.53z"/>
   <path class="fil0" d="M6564.23 4222.64c-123.96,0 -235.14,-19.53 -333.5,-58.61 -98.38,-39.08 -181.76,-93.37 -250.13,-162.84 -68.38,-69.47 -120.77,-150.28 -157.15,-242.44 -36.4,-92.13 -54.59,-190.33 -54.59,-294.54l0 -57.89c0,-118.69 17.19,-227.25 51.64,-325.68 34.42,-98.42 83.86,-183.81 148.31,-256.19 64.41,-72.36 142.88,-128.09 235.36,-167.17 92.46,-39.08 196.75,-58.62 312.84,-58.62 113.12,0 213.46,18.34 301.03,55.01 87.54,36.68 161.08,88.78 220.61,156.31 59.51,67.55 104.52,148.36 135.02,242.45 30.49,94.07 45.74,198.54 45.74,313.35l0 173.69 -1269.05 0 0 -277.9 851.45 0 0 -31.84c0,-57.9 -10.59,-109.76 -31.73,-155.6 -21.16,-45.82 -52.89,-82.25 -95.18,-109.27 -42.31,-27.01 -96.42,-40.53 -162.31,-40.53 -56.08,0 -104.29,12.07 -144.62,36.18 -40.35,24.12 -73.04,57.9 -98.13,101.31 -25.08,43.43 -43.79,94.34 -56.08,152.71 -12.31,58.4 -18.44,122.3 -18.44,191.79l0 57.89c0,62.73 9.08,120.63 27.29,173.68 18.2,53.08 44.27,98.93 78.21,137.51 33.95,38.6 75.26,68.52 123.95,89.74 48.71,21.23 104.05,31.84 166.02,31.84 76.73,0 148.3,-14.69 214.71,-44.14 66.41,-29.42 123.7,-74.06 171.91,-133.89l206.59 219.99c-33.46,47.3 -78.95,92.65 -136.5,136.07 -57.54,43.41 -126.67,78.89 -207.33,106.38 -80.67,27.51 -172.65,41.25 -275.94,41.25z"/>
   <path class="fil0" d="M7886.41 2969.2l0 1224.49 -424.99 0 0 -1566.08 399.9 0 25.09 341.59zm481.05 -351.72l0 0 -7.38 386.45c-20.64,-2.9 -45.51,-5.54 -74.51,-7.96 -29.03,-2.4 -55.34,-3.62 -78.95,-3.62 -60.02,0 -111.91,7.48 -155.68,22.43 -43.78,14.98 -80.19,36.91 -109.19,65.86 -29.03,28.95 -50.68,64.18 -64.93,105.66 -14.28,41.5 -22.39,88.8 -24.35,141.85l-85.58 -26.06c0,-101.31 10.33,-194.68 30.98,-280.07 20.66,-85.39 50.91,-159.93 90.75,-223.61 39.85,-63.69 88.77,-112.9 146.84,-147.64 58.02,-34.74 124.42,-52.11 199.2,-52.11 23.62,0 47.71,1.7 72.31,5.06 24.57,3.4 44.74,7.97 60.49,13.76z"/>
   <path class="fil0" d="M10216.47 2086.28l0 340.14 -1753.08 0 0 -340.14 1753.08 0zm-661.1 0l0 0 0 2107.41 -441.22 0 0 -2107.41 441.22 0z"/>
   <path class="fil0" d="M11039.88 4222.64c-123.97,0 -235.14,-19.53 -333.5,-58.61 -98.4,-39.08 -181.77,-93.37 -250.12,-162.84 -68.39,-69.47 -120.78,-150.28 -157.17,-242.44 -36.4,-92.13 -54.59,-190.33 -54.59,-294.54l0 -57.89c0,-118.69 17.2,-227.25 51.64,-325.68 34.43,-98.42 83.85,-183.81 148.3,-256.19 64.43,-72.36 142.9,-128.09 235.38,-167.17 92.44,-39.08 196.74,-58.62 312.83,-58.62 113.11,0 213.47,18.34 301.03,55.01 87.56,36.68 161.08,88.78 220.61,156.31 59.51,67.55 104.52,148.36 135.02,242.45 30.49,94.07 45.75,198.54 45.75,313.35l0 173.69 -1269.07 0 0 -277.9 851.47 0 0 -31.84c0,-57.9 -10.59,-109.76 -31.74,-155.6 -21.16,-45.82 -52.89,-82.25 -95.17,-109.27 -42.32,-27.01 -96.43,-40.53 -162.33,-40.53 -56.06,0 -104.28,12.07 -144.6,36.18 -40.36,24.12 -73.06,57.9 -98.15,101.31 -25.08,43.43 -43.78,94.34 -56.07,152.71 -12.31,58.4 -18.45,122.3 -18.45,191.79l0 57.89c0,62.73 9.09,120.63 27.32,173.68 18.19,53.08 44.26,98.93 78.2,137.51 33.93,38.6 75.26,68.52 123.96,89.74 48.69,21.23 104.02,31.84 166,31.84 76.74,0 148.31,-14.69 214.7,-44.14 66.41,-29.42 123.7,-74.06 171.92,-133.89l206.59 219.99c-33.44,47.3 -78.94,92.65 -136.5,136.07 -57.54,43.41 -126.68,78.89 -207.33,106.38 -80.68,27.51 -172.64,41.25 -275.93,41.25z"/>
   <path class="fil0" d="M12596.69 3896.98c52.13,0 98.37,-9.88 138.71,-29.68 40.32,-19.77 72.05,-47.76 95.18,-83.94 23.09,-36.19 35.17,-78.88 36.16,-128.1l399.9 0c-1,110.01 -30.99,207.71 -90.02,293.1 -59.03,85.39 -138.23,152.47 -237.58,201.19 -99.38,48.71 -210.53,73.09 -333.5,73.09 -123.95,0 -231.93,-20.26 -323.91,-60.79 -91.99,-40.52 -168.47,-96.73 -229.46,-168.62 -61,-71.88 -106.75,-155.81 -137.23,-251.84 -30.51,-96.01 -45.75,-199.03 -45.75,-309.02l0 -41.98c0,-110.96 15.24,-214.45 45.75,-310.47 30.48,-96.01 76.23,-179.95 137.23,-251.85 60.99,-71.87 137.24,-128.09 228.73,-168.62 91.49,-40.52 198.7,-60.79 321.69,-60.79 130.83,0 245.7,24.61 344.57,73.82 98.87,49.21 176.57,119.41 233.14,210.6 56.57,91.18 85.34,199.01 86.34,323.49l-399.9 0c-0.99,-52.11 -12.06,-99.37 -33.2,-141.85 -21.18,-42.45 -51.66,-76.46 -91.49,-102.04 -39.85,-25.55 -88.8,-38.35 -146.84,-38.35 -61.97,0 -112.65,12.8 -151.98,38.35 -39.37,25.58 -69.87,60.31 -91.49,104.21 -21.65,43.91 -36.67,93.6 -45.01,149.09 -8.38,55.49 -12.55,113.62 -12.55,174.41l0 41.98c0,60.79 3.92,119.17 11.81,175.13 7.86,55.97 22.87,105.66 45,149.07 22.13,43.43 52.87,77.7 92.24,102.77 39.33,25.1 90.48,37.64 153.46,37.64z"/>
   <path class="fil0" d="M13926.25 1970.48l0 2223.21 -424.99 0 0 -2223.21 424.99 0zm-60.51 1385.16l0 0 -116.57 0c0.96,-109.02 15.72,-209.61 44.26,-301.78 28.53,-92.12 69.36,-172.23 122.49,-240.26 53.11,-68.02 116.8,-120.85 191.1,-158.49 74.27,-37.63 156.64,-56.45 247.17,-56.45 78.68,0 150.26,10.85 214.69,32.57 64.44,21.7 120.02,56.45 166.75,104.21 46.72,47.76 82.89,110.25 108.48,187.44 25.55,77.2 38.36,170.79 38.36,280.79l0 990.02 -427.94 0 0 -992.91c0,-69.48 -10.11,-124.22 -30.25,-164.28 -20.18,-40.03 -49.2,-68.5 -87.07,-85.4 -37.89,-16.86 -84.36,-25.33 -139.45,-25.33 -61.01,0 -112.89,11.11 -155.67,33.29 -42.79,22.21 -77,52.83 -102.57,91.91 -25.59,39.08 -44.26,84.67 -56.06,136.78 -11.82,52.11 -17.72,108.08 -17.72,167.89z"/>
  </g>
  <polygon class="fil0" points="1599.12,3.63 1599.12,1577.82 1920.76,1577.82 1920.76,319.1 15636.23,319.1 15636.23,6335.74 1920.76,6335.74 1920.76,5160.76 1599.12,5160.76 1599.12,6651.22 15957.87,6651.22 15957.87,3.63 "/>
 </g>
</svg>
